<svg id="svg" version="1.1" xmlns="http://www.w3.org/2000/svg" xmlns:xlink="http://www.w3.org/1999/xlink" width="400" height="400" viewBox="0, 0, 400,400"><g id="svgg"><path id="path0" d="M123.200 50.000 C 123.200 50.220,122.581 50.400,121.824 50.400 C 121.067 50.400,120.336 50.580,120.200 50.800 C 120.064 51.020,119.603 51.200,119.176 51.200 C 118.749 51.200,118.400 51.380,118.400 51.600 C 118.400 51.820,118.040 52.000,117.600 52.000 C 117.160 52.000,116.800 52.180,116.800 52.400 C 116.800 52.620,116.455 52.800,116.033 52.800 C 115.612 52.800,115.207 52.935,115.133 53.100 C 114.966 53.476,112.836 54.775,111.900 55.071 C 111.515 55.193,111.200 55.452,111.200 55.647 C 111.200 55.841,110.840 56.000,110.400 56.000 C 109.960 56.000,109.600 56.180,109.600 56.400 C 109.600 56.620,109.330 56.800,109.000 56.800 C 108.670 56.800,108.400 56.980,108.400 57.200 C 108.400 57.420,108.040 57.600,107.600 57.600 C 107.160 57.600,106.800 57.780,106.800 58.000 C 106.800 58.220,106.514 58.400,106.164 58.400 C 105.424 58.400,98.265 62.009,98.067 62.482 C 97.993 62.657,97.588 62.800,97.167 62.800 C 96.745 62.800,96.400 62.980,96.400 63.200 C 96.400 63.420,96.040 63.600,95.600 63.600 C 95.160 63.600,94.800 63.746,94.800 63.925 C 94.800 64.104,94.170 64.498,93.400 64.800 C 92.630 65.102,92.000 65.496,92.000 65.675 C 92.000 65.854,91.640 66.000,91.200 66.000 C 90.760 66.000,90.400 66.180,90.400 66.400 C 90.400 66.620,90.040 66.800,89.600 66.800 C 89.160 66.800,88.800 66.980,88.800 67.200 C 88.800 67.420,88.440 67.600,88.000 67.600 C 87.560 67.600,87.200 67.746,87.200 67.925 C 87.200 68.104,86.570 68.498,85.800 68.800 C 85.030 69.102,84.400 69.496,84.400 69.675 C 84.400 69.854,84.130 70.000,83.800 70.000 C 83.470 70.000,83.200 70.180,83.200 70.400 C 83.200 70.620,82.840 70.800,82.400 70.800 C 81.960 70.800,81.600 70.980,81.600 71.200 C 81.600 71.420,81.240 71.600,80.800 71.600 C 80.360 71.600,80.000 71.780,80.000 72.000 C 80.000 72.220,79.640 72.400,79.200 72.400 C 78.760 72.400,78.400 72.580,78.400 72.800 C 78.400 73.020,78.040 73.200,77.600 73.200 C 77.160 73.200,76.800 73.380,76.800 73.600 C 76.800 73.820,76.530 74.000,76.200 74.000 C 75.870 74.000,75.600 74.180,75.600 74.400 C 75.600 74.620,75.309 74.800,74.954 74.800 C 74.238 74.800,70.277 76.826,70.067 77.300 C 69.993 77.465,69.588 77.600,69.167 77.600 C 68.745 77.600,68.400 77.780,68.400 78.000 C 68.400 78.220,68.040 78.400,67.600 78.400 C 67.160 78.400,66.800 78.580,66.800 78.800 C 66.800 79.020,66.480 79.200,66.088 79.200 C 65.697 79.200,65.117 79.560,64.800 80.000 C 64.483 80.440,64.011 80.800,63.752 80.800 C 62.914 80.800,56.800 87.242,56.800 88.125 C 56.800 88.399,56.440 88.883,56.000 89.200 C 55.560 89.517,55.200 90.082,55.200 90.455 C 55.200 90.828,55.065 91.193,54.900 91.267 C 54.610 91.396,53.113 94.355,52.303 96.400 C 52.085 96.950,51.748 97.713,51.553 98.095 C 51.359 98.477,51.200 99.231,51.200 99.771 C 51.200 100.311,51.020 100.864,50.800 101.000 C 50.580 101.136,50.400 101.766,50.400 102.400 C 50.400 103.034,50.220 103.664,50.000 103.800 C 49.780 103.936,49.600 105.027,49.600 106.224 C 49.600 107.421,49.420 108.400,49.200 108.400 C 48.961 108.400,48.800 109.933,48.800 112.200 C 48.800 114.467,48.639 116.000,48.400 116.000 C 48.159 116.000,48.000 117.667,48.000 120.200 C 48.000 122.733,48.159 124.400,48.400 124.400 C 48.635 124.400,48.800 125.802,48.800 127.805 C 48.800 129.798,49.007 131.573,49.300 132.083 C 50.082 133.448,51.505 134.800,52.158 134.800 C 52.485 134.800,52.864 134.980,53.000 135.200 C 53.136 135.420,53.957 135.600,54.824 135.600 C 55.691 135.600,56.400 135.420,56.400 135.200 C 56.400 134.980,56.760 134.800,57.200 134.800 C 57.640 134.800,58.000 134.620,58.000 134.400 C 58.000 134.180,58.360 134.000,58.800 134.000 C 59.240 134.000,59.600 133.820,59.600 133.600 C 59.600 133.380,59.960 133.200,60.400 133.200 C 61.174 133.200,61.200 133.467,61.200 141.400 C 61.200 146.600,61.346 149.600,61.600 149.600 C 61.820 149.600,62.000 150.500,62.000 151.600 C 62.000 152.700,62.180 153.600,62.400 153.600 C 62.620 153.600,62.800 154.219,62.800 154.976 C 62.800 155.733,62.980 156.464,63.200 156.600 C 63.420 156.736,63.600 157.287,63.600 157.824 C 63.600 158.361,63.780 158.800,64.000 158.800 C 64.220 158.800,64.400 159.160,64.400 159.600 C 64.400 160.040,64.580 160.400,64.800 160.400 C 65.020 160.400,65.200 160.683,65.200 161.029 C 65.200 161.837,66.163 162.800,66.971 162.800 C 67.317 162.800,67.600 162.980,67.600 163.200 C 67.600 163.422,68.659 163.600,69.976 163.600 C 71.283 163.600,72.464 163.420,72.600 163.200 C 72.736 162.980,73.197 162.800,73.624 162.800 C 74.051 162.800,74.400 162.620,74.400 162.400 C 74.400 162.180,74.760 162.000,75.200 162.000 C 75.640 162.000,76.000 161.820,76.000 161.600 C 76.000 160.519,76.684 161.414,77.146 163.100 C 77.666 164.996,78.179 166.381,78.847 167.695 C 79.041 168.077,79.200 168.752,79.200 169.195 C 79.200 169.638,79.380 170.000,79.600 170.000 C 79.820 170.000,80.000 170.272,80.000 170.605 C 80.000 170.938,80.168 171.523,80.374 171.905 C 80.579 172.287,80.983 173.185,81.271 173.900 C 81.560 174.615,81.931 175.200,82.098 175.200 C 82.264 175.200,82.400 175.472,82.400 175.805 C 82.400 176.138,82.580 176.768,82.800 177.205 C 83.020 177.642,83.380 178.358,83.600 178.795 C 83.820 179.232,84.000 179.862,84.000 180.195 C 84.000 180.528,84.180 180.800,84.400 180.800 C 84.620 180.800,84.800 181.036,84.800 181.325 C 84.800 181.613,85.160 182.236,85.600 182.708 C 86.040 183.180,86.400 183.844,86.400 184.183 C 86.400 184.522,86.580 184.800,86.800 184.800 C 87.020 184.800,87.200 185.160,87.200 185.600 C 87.200 186.040,87.380 186.400,87.600 186.400 C 87.820 186.400,88.000 186.678,88.000 187.017 C 88.000 187.356,88.360 188.020,88.800 188.492 C 89.240 188.964,89.600 189.587,89.600 189.875 C 89.600 190.164,89.780 190.400,90.000 190.400 C 90.220 190.400,90.400 190.670,90.400 191.000 C 90.400 191.330,90.567 191.600,90.771 191.600 C 90.975 191.600,91.460 192.320,91.848 193.200 C 92.236 194.080,92.699 194.800,92.877 194.800 C 93.055 194.800,93.200 195.025,93.200 195.300 C 93.201 195.575,93.651 196.323,94.200 196.962 C 94.750 197.601,95.200 198.257,95.200 198.420 C 95.200 198.582,95.740 199.293,96.400 200.000 C 97.060 200.707,97.600 201.440,97.600 201.629 C 97.600 201.818,98.230 202.603,99.000 203.373 C 99.770 204.143,100.400 204.893,100.400 205.039 C 100.400 205.601,103.928 208.800,104.547 208.800 C 104.906 208.800,105.200 208.980,105.200 209.200 C 105.200 209.420,106.190 209.600,107.400 209.600 C 108.610 209.600,109.600 209.420,109.600 209.200 C 109.600 208.980,109.780 208.800,110.000 208.800 C 110.633 208.800,110.479 209.487,109.300 211.925 C 108.166 214.270,101.346 221.600,100.298 221.600 C 100.011 221.600,99.517 221.960,99.200 222.400 C 98.883 222.840,98.303 223.200,97.912 223.200 C 97.520 223.200,97.200 223.338,97.200 223.507 C 97.200 223.676,96.206 224.244,94.991 224.768 C 92.603 225.799,91.200 226.827,91.200 227.547 C 91.200 227.796,91.020 228.000,90.800 228.000 C 90.569 228.000,90.400 229.267,90.400 231.000 C 90.400 232.733,90.569 234.000,90.800 234.000 C 91.020 234.000,91.200 234.360,91.200 234.800 C 91.200 235.240,91.345 235.600,91.523 235.600 C 91.701 235.600,92.164 236.320,92.552 237.200 C 92.940 238.080,93.425 238.800,93.629 238.800 C 93.833 238.800,94.000 239.001,94.000 239.247 C 94.000 239.894,102.371 248.000,103.039 248.000 C 103.348 248.000,103.600 248.180,103.600 248.400 C 103.600 248.620,103.883 248.800,104.229 248.800 C 104.574 248.800,105.136 249.079,105.477 249.420 C 105.818 249.760,106.615 250.143,107.248 250.270 C 107.882 250.396,108.400 250.657,108.400 250.850 C 108.400 251.043,108.730 251.200,109.133 251.200 C 109.964 251.200,109.973 253.949,109.155 257.800 C 108.498 260.893,109.199 276.514,110.034 277.380 C 110.235 277.589,110.400 278.523,110.400 279.456 C 110.400 280.389,110.580 281.264,110.800 281.400 C 111.020 281.536,111.200 282.256,111.200 283.000 C 111.200 283.744,111.380 284.464,111.600 284.600 C 111.820 284.736,112.000 285.276,112.000 285.800 C 112.000 286.324,112.180 286.864,112.400 287.000 C 112.620 287.136,112.800 287.687,112.800 288.224 C 112.800 288.761,112.980 289.200,113.200 289.200 C 113.420 289.200,113.600 289.549,113.600 289.976 C 113.600 290.403,113.780 290.864,114.000 291.000 C 114.220 291.136,114.400 291.687,114.400 292.224 C 114.400 292.761,114.580 293.200,114.800 293.200 C 115.020 293.200,115.200 293.560,115.200 294.000 C 115.200 294.440,115.380 294.800,115.600 294.800 C 115.820 294.800,116.000 295.160,116.000 295.600 C 116.000 296.040,116.180 296.400,116.400 296.400 C 116.620 296.400,116.800 296.636,116.800 296.925 C 116.800 297.213,117.160 297.836,117.600 298.308 C 118.040 298.780,118.400 299.444,118.400 299.783 C 118.400 300.122,118.580 300.400,118.800 300.400 C 119.020 300.400,119.200 300.636,119.200 300.925 C 119.200 301.213,119.560 301.836,120.000 302.308 C 120.440 302.780,120.800 303.354,120.800 303.583 C 120.800 303.812,120.980 304.000,121.200 304.000 C 121.420 304.000,121.600 304.188,121.600 304.418 C 121.600 304.648,122.005 305.251,122.500 305.757 C 122.995 306.263,123.940 307.370,124.600 308.216 C 126.654 310.851,131.935 316.000,132.583 316.000 C 132.922 316.000,133.200 316.180,133.200 316.400 C 133.200 316.622,134.267 316.800,135.600 316.800 C 136.933 316.800,138.000 316.622,138.000 316.400 C 138.000 316.180,138.294 316.000,138.653 316.000 C 139.012 316.000,139.645 315.595,140.060 315.100 C 142.761 311.873,154.581 299.600,154.987 299.600 C 155.104 299.600,155.200 299.960,155.200 300.400 C 155.200 300.840,155.380 301.200,155.600 301.200 C 155.820 301.200,156.000 301.524,156.000 301.920 C 156.000 302.814,156.894 304.793,157.300 304.797 C 157.465 304.799,157.600 305.160,157.600 305.600 C 157.600 306.040,157.780 306.400,158.000 306.400 C 158.220 306.400,158.400 306.664,158.400 306.986 C 158.400 307.799,159.676 310.400,160.074 310.400 C 160.253 310.400,160.400 310.760,160.400 311.200 C 160.400 311.640,160.580 312.000,160.800 312.000 C 161.020 312.000,161.200 312.236,161.200 312.525 C 161.200 312.813,161.560 313.436,162.000 313.908 C 162.440 314.380,162.800 315.004,162.800 315.295 C 162.800 315.586,163.160 316.083,163.600 316.400 C 164.040 316.717,164.400 317.257,164.400 317.600 C 164.400 317.943,164.760 318.483,165.200 318.800 C 165.640 319.117,166.000 319.580,166.000 319.829 C 166.000 320.078,166.540 320.846,167.200 321.537 C 167.860 322.228,168.400 322.898,168.400 323.028 C 168.400 323.157,169.120 323.954,170.000 324.800 C 170.880 325.646,171.600 326.495,171.600 326.687 C 171.600 327.466,182.330 338.623,184.288 339.880 C 185.797 340.848,186.223 341.190,187.808 342.700 C 188.559 343.415,189.338 344.000,189.538 344.000 C 189.739 344.000,190.645 344.720,191.552 345.600 C 192.459 346.480,193.292 347.200,193.404 347.200 C 193.516 347.200,194.172 347.740,194.863 348.400 C 195.554 349.060,196.362 349.600,196.659 349.600 C 196.957 349.600,197.200 349.780,197.200 350.000 C 197.200 350.229,198.400 350.400,200.000 350.400 C 201.600 350.400,202.800 350.229,202.800 350.000 C 202.800 349.780,203.043 349.600,203.341 349.600 C 203.638 349.600,204.446 349.060,205.137 348.400 C 205.828 347.740,206.502 347.200,206.636 347.200 C 206.770 347.200,207.383 346.660,208.000 346.000 C 208.617 345.340,209.333 344.800,209.592 344.800 C 209.851 344.800,210.724 344.125,211.531 343.300 C 212.339 342.475,213.524 341.530,214.165 341.200 C 215.923 340.294,228.400 327.632,228.400 326.754 C 228.400 326.525,229.120 325.646,230.000 324.800 C 230.880 323.954,231.600 323.141,231.600 322.992 C 231.600 322.843,232.140 322.217,232.800 321.600 C 233.460 320.983,234.000 320.231,234.000 319.928 C 234.000 319.625,234.360 319.117,234.800 318.800 C 235.240 318.483,235.600 318.027,235.600 317.787 C 235.600 317.547,235.915 317.002,236.300 316.575 C 236.685 316.149,237.255 315.305,237.568 314.700 C 237.880 314.095,238.285 313.600,238.468 313.600 C 238.650 313.600,238.800 313.240,238.800 312.800 C 238.800 312.360,238.948 312.000,239.128 312.000 C 239.308 312.000,240.156 310.515,241.013 308.700 C 241.869 306.885,242.711 305.340,242.885 305.267 C 243.058 305.193,243.200 304.788,243.200 304.367 C 243.200 303.945,243.380 303.600,243.600 303.600 C 243.820 303.600,244.000 303.161,244.000 302.624 C 244.000 302.087,244.180 301.536,244.400 301.400 C 244.620 301.264,244.800 300.803,244.800 300.376 C 244.800 299.212,244.883 299.274,249.409 303.800 C 251.719 306.110,253.748 308.000,253.918 308.000 C 254.088 308.000,254.533 308.517,254.907 309.150 C 255.857 310.758,260.906 316.000,261.505 316.000 C 261.777 316.000,262.000 316.180,262.000 316.400 C 262.000 316.975,266.247 316.894,267.282 316.300 C 268.561 315.566,276.800 307.155,276.800 306.583 C 276.800 306.478,277.340 305.828,278.000 305.137 C 278.660 304.446,279.200 303.678,279.200 303.429 C 279.200 303.180,279.560 302.717,280.000 302.400 C 280.440 302.083,280.800 301.503,280.800 301.112 C 280.800 300.720,280.980 300.400,281.200 300.400 C 281.420 300.400,281.600 300.164,281.600 299.875 C 281.600 299.587,281.960 298.964,282.400 298.492 C 282.840 298.020,283.200 297.356,283.200 297.017 C 283.200 296.678,283.380 296.400,283.600 296.400 C 283.820 296.400,284.000 296.040,284.000 295.600 C 284.000 295.160,284.180 294.800,284.400 294.800 C 284.620 294.800,284.800 294.440,284.800 294.000 C 284.800 293.560,284.980 293.200,285.200 293.200 C 285.420 293.200,285.600 292.928,285.600 292.595 C 285.600 292.262,285.780 291.632,286.000 291.195 C 286.220 290.758,286.580 290.042,286.800 289.605 C 287.020 289.168,287.200 288.448,287.200 288.005 C 287.200 287.562,287.380 287.200,287.600 287.200 C 287.820 287.200,288.000 286.671,288.000 286.024 C 288.000 285.377,288.180 284.736,288.400 284.600 C 288.620 284.464,288.800 283.733,288.800 282.976 C 288.800 282.219,288.962 281.600,289.160 281.600 C 289.358 281.600,289.631 280.745,289.767 279.700 C 289.903 278.655,290.212 276.540,290.454 275.000 C 290.995 271.547,291.057 258.503,290.551 254.300 C 290.210 251.457,290.238 251.200,290.889 251.200 C 291.280 251.200,291.600 251.020,291.600 250.800 C 291.600 250.580,292.016 250.400,292.525 250.400 C 293.033 250.400,293.836 250.040,294.308 249.600 C 294.780 249.160,295.444 248.800,295.783 248.800 C 296.122 248.800,296.400 248.620,296.400 248.400 C 296.400 248.180,296.652 248.000,296.961 248.000 C 297.629 248.000,306.000 239.894,306.000 239.247 C 306.000 239.001,306.167 238.800,306.371 238.800 C 306.575 238.800,307.060 238.080,307.448 237.200 C 307.836 236.320,308.299 235.600,308.477 235.600 C 308.655 235.600,308.800 235.240,308.800 234.800 C 308.800 234.360,308.980 234.000,309.200 234.000 C 309.778 234.000,309.695 228.957,309.100 227.910 C 308.165 226.266,306.053 224.800,304.620 224.800 C 304.279 224.800,304.000 224.620,304.000 224.400 C 304.000 224.180,303.730 224.000,303.400 224.000 C 303.070 224.000,302.800 223.820,302.800 223.600 C 302.800 223.380,302.480 223.200,302.088 223.200 C 301.697 223.200,301.117 222.840,300.800 222.400 C 300.483 221.960,299.989 221.600,299.702 221.600 C 298.654 221.600,291.834 214.270,290.700 211.925 C 289.521 209.487,289.367 208.800,290.000 208.800 C 290.220 208.800,290.400 208.980,290.400 209.200 C 290.400 209.420,291.390 209.600,292.600 209.600 C 293.810 209.600,294.800 209.420,294.800 209.200 C 294.800 208.980,295.094 208.800,295.453 208.800 C 296.064 208.800,299.600 205.605,299.600 205.053 C 299.600 204.914,300.320 204.059,301.200 203.152 C 302.080 202.245,302.800 201.337,302.800 201.134 C 302.800 200.930,303.250 200.314,303.800 199.764 C 304.350 199.214,304.800 198.620,304.800 198.444 C 304.800 198.268,305.250 197.601,305.800 196.962 C 306.349 196.323,306.799 195.575,306.800 195.300 C 306.800 195.025,306.945 194.800,307.123 194.800 C 307.301 194.800,307.764 194.080,308.152 193.200 C 308.540 192.320,309.025 191.600,309.229 191.600 C 309.433 191.600,309.600 191.330,309.600 191.000 C 309.600 190.670,309.780 190.400,310.000 190.400 C 310.220 190.400,310.400 190.164,310.400 189.875 C 310.400 189.587,310.760 188.964,311.200 188.492 C 311.640 188.020,312.000 187.356,312.000 187.017 C 312.000 186.678,312.180 186.400,312.400 186.400 C 312.620 186.400,312.800 186.040,312.800 185.600 C 312.800 185.160,312.980 184.800,313.200 184.800 C 313.420 184.800,313.600 184.522,313.600 184.183 C 313.600 183.844,313.960 183.180,314.400 182.708 C 314.840 182.236,315.200 181.613,315.200 181.325 C 315.200 181.036,315.380 180.800,315.600 180.800 C 315.820 180.800,316.000 180.528,316.000 180.195 C 316.000 179.862,316.180 179.232,316.400 178.795 C 316.620 178.358,316.980 177.642,317.200 177.205 C 317.420 176.768,317.600 176.138,317.600 175.805 C 317.600 175.472,317.736 175.200,317.902 175.200 C 318.069 175.200,318.440 174.615,318.729 173.900 C 319.017 173.185,319.421 172.287,319.626 171.905 C 319.832 171.523,320.000 170.938,320.000 170.605 C 320.000 170.272,320.180 170.000,320.400 170.000 C 320.620 170.000,320.800 169.638,320.800 169.195 C 320.800 168.752,320.959 168.077,321.153 167.695 C 321.821 166.381,322.334 164.996,322.854 163.100 C 323.316 161.414,324.000 160.519,324.000 161.600 C 324.000 161.820,324.360 162.000,324.800 162.000 C 325.240 162.000,325.600 162.180,325.600 162.400 C 325.600 162.620,325.949 162.800,326.376 162.800 C 326.803 162.800,327.264 162.980,327.400 163.200 C 327.536 163.420,328.717 163.600,330.024 163.600 C 331.341 163.600,332.400 163.422,332.400 163.200 C 332.400 162.980,332.683 162.800,333.029 162.800 C 333.374 162.800,333.914 162.543,334.229 162.229 C 334.543 161.914,334.800 161.374,334.800 161.029 C 334.800 160.683,334.980 160.400,335.200 160.400 C 335.420 160.400,335.600 160.040,335.600 159.600 C 335.600 159.160,335.780 158.800,336.000 158.800 C 336.220 158.800,336.400 158.361,336.400 157.824 C 336.400 157.287,336.580 156.736,336.800 156.600 C 337.020 156.464,337.200 155.733,337.200 154.976 C 337.200 154.219,337.380 153.600,337.600 153.600 C 337.820 153.600,338.000 152.700,338.000 151.600 C 338.000 150.500,338.180 149.600,338.400 149.600 C 338.654 149.600,338.800 146.600,338.800 141.400 C 338.800 133.467,338.826 133.200,339.600 133.200 C 340.040 133.200,340.400 133.380,340.400 133.600 C 340.400 133.820,340.760 134.000,341.200 134.000 C 341.640 134.000,342.000 134.180,342.000 134.400 C 342.000 134.620,342.360 134.800,342.800 134.800 C 343.240 134.800,343.600 134.980,343.600 135.200 C 343.600 135.722,346.678 135.722,347.000 135.200 C 347.136 134.980,347.515 134.800,347.842 134.800 C 348.495 134.800,349.918 133.448,350.700 132.083 C 350.993 131.573,351.200 129.798,351.200 127.805 C 351.200 125.802,351.365 124.400,351.600 124.400 C 351.840 124.400,352.000 122.808,352.000 120.424 C 352.000 118.204,351.823 116.338,351.600 116.200 C 351.379 116.063,351.200 114.263,351.200 112.176 C 351.200 110.099,351.037 108.400,350.837 108.400 C 350.637 108.400,350.378 107.455,350.261 106.300 C 349.922 102.960,349.540 101.200,349.156 101.200 C 348.960 101.200,348.800 100.671,348.800 100.024 C 348.800 99.377,348.620 98.736,348.400 98.600 C 348.180 98.464,348.000 97.913,348.000 97.376 C 348.000 96.839,347.820 96.400,347.600 96.400 C 347.380 96.400,347.200 96.057,347.200 95.638 C 347.200 94.822,345.599 91.488,345.100 91.267 C 344.935 91.193,344.800 90.923,344.799 90.667 C 344.799 90.410,344.259 89.570,343.600 88.800 C 342.941 88.030,342.401 87.266,342.401 87.103 C 342.399 86.352,336.979 80.800,336.248 80.800 C 335.989 80.800,335.517 80.440,335.200 80.000 C 334.883 79.560,334.303 79.200,333.912 79.200 C 333.520 79.200,333.200 79.020,333.200 78.800 C 333.200 78.580,332.840 78.400,332.400 78.400 C 331.960 78.400,331.600 78.220,331.600 78.000 C 331.600 77.780,331.255 77.600,330.833 77.600 C 330.412 77.600,330.007 77.443,329.933 77.251 C 329.753 76.779,325.781 74.800,325.013 74.800 C 324.676 74.800,324.400 74.620,324.400 74.400 C 324.400 74.180,324.130 74.000,323.800 74.000 C 323.470 74.000,323.200 73.820,323.200 73.600 C 323.200 73.380,322.840 73.200,322.400 73.200 C 321.960 73.200,321.600 73.020,321.600 72.800 C 321.600 72.580,321.240 72.400,320.800 72.400 C 320.360 72.400,320.000 72.220,320.000 72.000 C 320.000 71.780,319.640 71.600,319.200 71.600 C 318.760 71.600,318.400 71.454,318.400 71.275 C 318.400 71.096,317.770 70.702,317.000 70.400 C 316.230 70.098,315.600 69.738,315.600 69.600 C 315.600 69.462,314.970 69.102,314.200 68.800 C 313.430 68.498,312.800 68.104,312.800 67.925 C 312.800 67.746,312.440 67.600,312.000 67.600 C 311.560 67.600,311.200 67.420,311.200 67.200 C 311.200 66.980,310.840 66.800,310.400 66.800 C 309.960 66.800,309.600 66.620,309.600 66.400 C 309.600 66.180,309.240 66.000,308.800 66.000 C 308.360 66.000,308.000 65.854,308.000 65.675 C 308.000 65.496,307.370 65.102,306.600 64.800 C 305.830 64.498,305.200 64.104,305.200 63.925 C 305.200 63.746,304.840 63.600,304.400 63.600 C 303.960 63.600,303.600 63.420,303.600 63.200 C 303.600 62.980,303.255 62.800,302.833 62.800 C 302.412 62.800,302.007 62.657,301.933 62.482 C 301.735 62.009,294.576 58.400,293.836 58.400 C 293.486 58.400,293.200 58.220,293.200 58.000 C 293.200 57.780,292.840 57.600,292.400 57.600 C 291.960 57.600,291.600 57.420,291.600 57.200 C 291.600 56.980,291.330 56.800,291.000 56.800 C 290.670 56.800,290.400 56.620,290.400 56.400 C 290.400 56.180,290.055 56.000,289.633 56.000 C 289.212 56.000,288.807 55.865,288.733 55.700 C 288.566 55.324,286.436 54.025,285.500 53.729 C 285.115 53.607,284.800 53.348,284.800 53.153 C 284.800 52.959,284.440 52.800,284.000 52.800 C 283.560 52.800,283.200 52.620,283.200 52.400 C 283.200 52.180,282.840 52.000,282.400 52.000 C 281.960 52.000,281.600 51.820,281.600 51.600 C 281.600 51.380,281.251 51.200,280.824 51.200 C 280.397 51.200,279.936 51.020,279.800 50.800 C 279.664 50.580,278.933 50.400,278.176 50.400 C 277.419 50.400,276.800 50.220,276.800 50.000 C 276.800 49.757,275.000 49.600,272.200 49.600 C 269.400 49.600,267.600 49.757,267.600 50.000 C 267.600 50.220,266.981 50.400,266.224 50.400 C 265.467 50.400,264.736 50.580,264.600 50.800 C 264.464 51.020,264.003 51.200,263.576 51.200 C 263.149 51.200,262.800 51.380,262.800 51.600 C 262.800 51.820,262.480 52.000,262.088 52.000 C 261.697 52.000,261.117 52.360,260.800 52.800 C 260.483 53.240,260.073 53.600,259.890 53.600 C 259.706 53.600,258.496 54.680,257.200 56.000 C 255.039 58.202,253.600 59.001,253.600 58.000 C 253.600 57.780,253.060 57.600,252.400 57.600 C 251.740 57.600,251.200 57.420,251.200 57.200 C 251.200 56.980,250.660 56.800,250.000 56.800 C 249.340 56.800,248.800 56.620,248.800 56.400 C 248.800 56.180,248.271 56.000,247.624 56.000 C 246.977 56.000,246.336 55.820,246.200 55.600 C 246.064 55.380,245.153 55.200,244.176 55.200 C 243.199 55.200,242.400 55.020,242.400 54.800 C 242.400 54.536,228.000 54.400,200.000 54.400 C 172.000 54.400,157.600 54.536,157.600 54.800 C 157.600 55.020,156.801 55.200,155.824 55.200 C 154.847 55.200,153.936 55.380,153.800 55.600 C 153.664 55.820,153.023 56.000,152.376 56.000 C 151.729 56.000,151.200 56.180,151.200 56.400 C 151.200 56.620,150.671 56.800,150.024 56.800 C 149.377 56.800,148.736 56.980,148.600 57.200 C 148.464 57.420,147.913 57.600,147.376 57.600 C 146.839 57.600,146.400 57.780,146.400 58.000 C 146.400 59.001,144.961 58.202,142.800 56.000 C 141.504 54.680,140.294 53.600,140.110 53.600 C 139.927 53.600,139.517 53.240,139.200 52.800 C 138.883 52.360,138.303 52.000,137.912 52.000 C 137.520 52.000,137.200 51.820,137.200 51.600 C 137.200 51.380,136.851 51.200,136.424 51.200 C 135.997 51.200,135.536 51.020,135.400 50.800 C 135.264 50.580,134.533 50.400,133.776 50.400 C 133.019 50.400,132.400 50.220,132.400 50.000 C 132.400 49.757,130.600 49.600,127.800 49.600 C 125.000 49.600,123.200 49.757,123.200 50.000 M130.281 60.456 C 133.364 61.713,134.009 62.104,135.158 63.413 C 137.652 66.253,138.250 69.975,136.969 74.680 C 136.621 75.956,136.005 78.260,135.600 79.800 C 135.195 81.340,134.592 83.590,134.261 84.800 C 133.929 86.010,133.184 88.800,132.605 91.000 C 132.026 93.200,130.942 97.250,130.197 100.000 C 128.822 105.078,127.772 108.994,126.340 114.400 C 125.903 116.050,125.365 118.030,125.146 118.800 C 124.926 119.570,124.591 120.830,124.400 121.600 C 124.209 122.370,123.849 123.720,123.600 124.600 C 123.351 125.480,122.991 126.830,122.800 127.600 C 122.609 128.370,122.274 129.630,122.054 130.400 C 121.664 131.771,120.768 135.101,119.231 140.900 C 118.809 142.495,118.192 144.790,117.861 146.000 C 117.101 148.780,115.884 153.315,114.318 159.200 C 113.645 161.730,112.564 165.780,111.916 168.200 C 111.268 170.620,110.380 173.950,109.942 175.600 C 109.503 177.250,108.965 179.230,108.746 180.000 C 108.526 180.770,108.191 182.030,108.000 182.800 C 107.809 183.570,107.449 184.920,107.200 185.800 C 106.737 187.433,106.245 189.331,105.770 191.306 C 105.203 193.666,104.592 193.158,100.589 187.000 C 93.638 176.305,87.800 163.318,85.986 154.515 C 84.778 148.657,82.414 147.354,77.096 149.617 C 73.117 151.310,72.750 151.190,72.143 148.000 C 70.991 141.937,71.915 131.390,74.141 125.200 C 76.275 119.265,71.975 115.796,66.170 118.770 C 58.531 122.683,58.658 122.715,58.989 116.957 C 59.957 100.104,64.243 92.336,76.000 86.128 C 78.970 84.560,82.840 82.514,84.600 81.581 C 86.360 80.649,89.420 79.037,91.400 78.000 C 93.380 76.963,96.440 75.348,98.200 74.412 C 99.960 73.476,103.290 71.716,105.600 70.501 C 107.910 69.286,111.240 67.526,113.000 66.591 C 125.775 59.804,127.329 59.252,130.281 60.456 M274.772 60.497 C 276.499 61.099,284.147 64.998,295.400 71.016 C 297.160 71.957,300.220 73.578,302.200 74.618 C 304.180 75.657,307.060 77.172,308.600 77.984 C 310.140 78.796,313.380 80.501,315.800 81.772 C 328.959 88.685,329.337 88.916,332.219 91.789 C 337.659 97.213,340.390 105.227,340.970 117.473 C 341.187 122.045,341.049 122.280,338.808 121.154 C 331.780 117.622,329.765 117.081,327.674 118.162 C 325.313 119.382,324.668 121.887,325.859 125.200 C 328.081 131.381,328.972 141.401,327.868 147.800 C 327.278 151.218,326.949 151.338,322.904 149.617 C 317.264 147.217,315.539 148.339,313.749 155.566 C 311.298 165.464,306.048 176.894,299.036 187.600 C 295.479 193.030,294.676 193.721,294.270 191.700 C 293.985 190.278,293.372 187.820,292.800 185.800 C 292.551 184.920,292.191 183.570,292.000 182.800 C 291.809 182.030,291.474 180.770,291.254 180.000 C 291.035 179.230,290.497 177.250,290.058 175.600 C 289.620 173.950,288.732 170.620,288.084 168.200 C 287.436 165.780,286.355 161.730,285.682 159.200 C 284.116 153.315,282.899 148.780,282.139 146.000 C 281.808 144.790,281.191 142.495,280.769 140.900 C 279.232 135.101,278.336 131.771,277.946 130.400 C 277.726 129.630,277.391 128.370,277.200 127.600 C 277.009 126.830,276.649 125.480,276.400 124.600 C 276.151 123.720,275.791 122.370,275.600 121.600 C 275.409 120.830,275.074 119.570,274.854 118.800 C 274.635 118.030,274.097 116.050,273.660 114.400 C 272.228 108.994,271.178 105.078,269.803 100.000 C 269.058 97.250,267.974 93.200,267.395 91.000 C 266.816 88.800,266.071 86.010,265.739 84.800 C 265.408 83.590,264.805 81.340,264.400 79.800 C 263.995 78.260,263.379 75.956,263.031 74.680 C 261.413 68.736,263.203 63.244,267.343 61.453 C 268.034 61.154,269.050 60.716,269.600 60.481 C 270.971 59.896,273.062 59.902,274.772 60.497 M241.000 65.318 C 246.734 66.651,252.395 68.818,252.408 69.686 C 252.420 70.499,253.510 76.037,254.004 77.800 C 254.251 78.680,254.609 80.030,254.800 80.800 C 254.991 81.570,255.351 82.920,255.600 83.800 C 255.849 84.680,256.209 86.030,256.400 86.800 C 256.591 87.570,256.926 88.830,257.146 89.600 C 257.365 90.370,257.903 92.350,258.341 94.000 C 258.779 95.650,259.408 97.990,259.739 99.200 C 260.499 101.980,261.716 106.515,263.282 112.400 C 263.955 114.930,265.036 118.980,265.684 121.400 C 266.332 123.820,267.208 127.105,267.631 128.700 C 269.213 134.665,270.067 137.841,270.454 139.200 C 270.674 139.970,271.009 141.230,271.200 142.000 C 271.391 142.770,271.751 144.120,272.000 145.000 C 272.249 145.880,272.609 147.230,272.800 148.000 C 272.991 148.770,273.351 150.120,273.600 151.000 C 273.849 151.880,274.209 153.230,274.400 154.000 C 274.591 154.770,274.926 156.030,275.146 156.800 C 275.558 158.247,276.981 163.541,277.618 166.000 C 277.818 166.770,277.987 176.130,277.993 186.800 C 278.009 210.494,278.205 212.030,282.056 218.563 C 284.109 222.047,290.335 228.355,294.100 230.765 C 297.316 232.825,297.378 233.205,294.913 235.741 C 291.479 239.273,288.055 241.196,283.725 242.025 C 278.824 242.963,277.323 245.048,278.531 249.241 C 283.716 267.234,278.266 290.035,265.644 303.154 L 264.689 304.148 261.844 301.156 C 246.687 285.210,245.112 283.644,243.982 283.396 C 241.136 282.771,238.829 284.356,238.006 287.504 C 233.706 303.928,220.841 322.204,204.204 335.522 C 200.224 338.708,199.988 338.789,198.420 337.500 C 197.818 337.005,196.624 336.060,195.767 335.400 C 191.796 332.342,183.615 324.366,179.970 320.000 C 178.777 318.570,177.710 317.310,177.600 317.200 C 174.358 313.958,166.836 301.208,164.555 295.089 C 164.209 294.160,163.787 293.040,163.618 292.600 C 163.449 292.160,163.130 291.170,162.909 290.400 C 161.375 285.046,160.970 284.367,158.818 283.536 C 156.174 282.516,151.380 286.419,141.924 297.290 C 141.552 297.718,139.945 299.434,138.354 301.103 L 135.460 304.139 133.328 301.849 C 121.554 289.199,116.802 268.954,121.254 250.403 C 122.599 244.796,121.541 243.033,116.218 242.013 C 112.444 241.290,109.150 239.516,105.910 236.459 C 102.523 233.264,102.522 232.928,105.900 230.765 C 112.376 226.619,118.525 219.047,120.725 212.511 L 121.772 209.400 121.986 187.400 C 122.104 175.300,122.353 165.162,122.541 164.872 C 122.729 164.581,123.224 163.006,123.641 161.372 C 124.533 157.879,125.889 152.782,126.454 150.800 C 126.674 150.030,127.009 148.770,127.200 148.000 C 127.391 147.230,127.751 145.880,128.000 145.000 C 128.249 144.120,128.609 142.770,128.800 142.000 C 128.991 141.230,129.326 139.970,129.546 139.200 C 129.936 137.829,130.832 134.499,132.369 128.700 C 132.791 127.105,133.408 124.810,133.739 123.600 C 134.071 122.390,134.819 119.600,135.402 117.400 C 137.644 108.939,138.025 107.506,138.830 104.500 C 139.286 102.795,139.931 100.410,140.261 99.200 C 140.592 97.990,141.221 95.650,141.659 94.000 C 142.097 92.350,142.635 90.370,142.854 89.600 C 143.074 88.830,143.409 87.570,143.600 86.800 C 143.791 86.030,144.151 84.680,144.400 83.800 C 144.649 82.920,145.009 81.570,145.200 80.800 C 145.391 80.030,145.751 78.680,146.000 77.800 C 146.406 76.366,147.572 70.277,147.592 69.486 C 147.608 68.849,154.160 66.399,158.200 65.519 C 164.031 64.249,235.653 64.075,241.000 65.318 M156.000 117.232 C 150.996 119.498,149.460 123.102,149.671 132.096 C 149.898 141.803,153.196 146.000,160.600 146.000 C 168.036 146.000,171.600 141.204,171.600 131.200 C 171.600 119.483,164.692 113.298,156.000 117.232 M234.905 117.262 C 229.991 119.645,228.601 122.631,228.600 130.800 C 228.600 141.519,231.901 146.000,239.798 146.000 C 248.024 146.000,252.307 137.925,250.380 126.047 C 249.144 118.429,241.474 114.076,234.905 117.262 M187.424 163.207 C 183.646 163.873,180.931 166.763,180.501 170.577 C 180.165 173.564,181.038 175.234,186.681 182.390 C 191.379 188.348,193.004 190.401,193.813 191.400 C 195.042 192.917,195.036 193.168,193.700 195.900 C 186.958 209.689,167.455 205.987,165.189 190.488 C 164.583 186.347,163.214 184.800,160.154 184.800 C 155.821 184.800,154.287 190.401,156.813 197.000 C 156.981 197.440,157.351 198.430,157.633 199.200 C 159.837 205.204,168.214 212.325,174.200 213.282 C 174.978 213.407,175.007 213.817,175.250 228.205 C 175.506 243.408,175.666 245.010,177.333 249.112 C 185.542 269.315,214.458 269.315,222.667 249.112 C 224.334 245.010,224.494 243.408,224.750 228.205 C 224.993 213.817,225.022 213.407,225.800 213.282 C 231.833 212.317,240.051 205.304,242.377 199.136 C 242.654 198.401,243.019 197.440,243.187 197.000 C 245.803 190.164,244.186 184.800,239.509 184.800 C 236.717 184.800,235.422 186.386,234.776 190.598 C 232.282 206.863,211.027 209.599,205.594 194.355 C 205.079 192.911,205.080 192.909,207.640 189.698 C 209.048 187.931,211.550 184.744,213.200 182.614 C 214.850 180.485,216.608 178.260,217.107 177.671 C 221.268 172.757,220.079 166.162,214.595 163.732 C 212.794 162.934,191.328 162.520,187.424 163.207 M202.210 206.452 C 205.397 209.739,210.516 212.756,213.800 213.282 C 215.086 213.489,215.238 241.600,213.971 244.985 C 209.124 257.942,190.876 257.942,186.029 244.985 C 184.762 241.600,184.914 213.489,186.200 213.282 C 189.474 212.757,194.548 209.759,197.785 206.437 C 200.189 203.970,199.802 203.968,202.210 206.452 " stroke="none" fill="#2d1514" fill-rule="evenodd"></path><path id="path1" d="M197.800 207.587 C 196.700 208.675,195.657 209.574,195.483 209.583 C 195.309 209.592,194.780 209.960,194.308 210.400 C 193.836 210.840,193.213 211.200,192.925 211.200 C 192.636 211.200,192.400 211.380,192.400 211.600 C 192.400 211.820,192.040 212.000,191.600 212.000 C 191.160 212.000,190.800 212.180,190.800 212.400 C 190.800 212.620,190.451 212.800,190.024 212.800 C 189.597 212.800,189.136 212.980,189.000 213.200 C 188.864 213.420,188.358 213.606,187.876 213.613 C 185.582 213.646,185.599 213.536,185.606 227.644 C 185.613 241.725,185.830 243.675,187.760 246.968 C 189.034 249.142,191.221 251.426,192.380 251.794 C 192.831 251.937,193.200 252.222,193.200 252.427 C 193.200 252.632,193.549 252.800,193.976 252.800 C 194.403 252.800,194.849 252.956,194.967 253.147 C 195.190 253.508,198.264 254.074,200.000 254.074 C 201.736 254.074,204.810 253.508,205.033 253.147 C 205.151 252.956,205.597 252.800,206.024 252.800 C 206.451 252.800,206.800 252.632,206.800 252.427 C 206.800 252.222,207.169 251.937,207.620 251.794 C 208.779 251.426,210.966 249.142,212.240 246.968 C 214.170 243.675,214.387 241.725,214.394 227.644 C 214.401 213.536,214.418 213.646,212.124 213.613 C 211.642 213.606,211.136 213.420,211.000 213.200 C 210.864 212.980,210.403 212.800,209.976 212.800 C 209.549 212.800,209.200 212.620,209.200 212.400 C 209.200 212.180,208.840 212.000,208.400 212.000 C 207.960 212.000,207.600 211.820,207.600 211.600 C 207.600 211.380,207.364 211.200,207.075 211.200 C 206.787 211.200,206.164 210.840,205.692 210.400 C 205.220 209.960,204.691 209.592,204.517 209.583 C 204.343 209.574,203.300 208.675,202.200 207.587 C 201.100 206.498,200.110 205.607,200.000 205.607 C 199.890 205.607,198.900 206.498,197.800 207.587 " stroke="none" fill="#fb5c53" fill-rule="evenodd"></path><path id="path2" d="M125.056 61.061 C 124.646 61.179,123.386 61.772,122.256 62.379 C 120.371 63.391,117.334 64.986,106.200 70.812 C 99.363 74.390,95.897 76.221,93.200 77.680 C 89.144 79.875,82.643 83.293,77.536 85.916 C 64.529 92.598,60.499 99.478,59.739 116.306 L 59.517 121.212 60.459 120.852 C 60.976 120.654,62.740 119.839,64.377 119.040 C 69.789 116.402,72.439 116.447,74.405 119.207 C 75.258 120.405,75.509 123.816,74.839 125.105 C 73.416 127.844,71.782 138.411,72.133 142.609 C 72.851 151.206,72.625 150.880,76.690 149.188 C 81.472 147.197,86.000 148.632,86.000 152.138 C 86.000 152.581,86.168 153.496,86.373 154.172 C 86.578 154.847,86.959 156.210,87.218 157.200 C 87.478 158.190,87.842 159.360,88.025 159.800 C 88.209 160.240,88.652 161.500,89.009 162.600 C 89.366 163.700,89.933 165.230,90.270 166.000 C 90.606 166.770,91.021 167.760,91.191 168.200 C 93.523 174.238,102.783 190.494,104.570 191.687 C 104.832 191.862,105.125 191.473,105.321 190.687 C 106.145 187.386,106.378 186.491,106.801 185.000 C 107.051 184.120,107.347 182.950,107.458 182.400 C 107.569 181.850,107.813 181.040,108.000 180.600 C 108.187 180.160,108.431 179.350,108.542 178.800 C 108.653 178.250,108.949 177.080,109.199 176.200 C 109.449 175.320,109.809 173.970,110.000 173.200 C 110.191 172.430,110.551 171.080,110.801 170.200 C 111.051 169.320,111.347 168.150,111.458 167.600 C 111.569 167.050,111.813 166.240,112.000 165.800 C 112.187 165.360,112.428 164.550,112.537 164.000 C 112.645 163.450,113.109 161.605,113.567 159.900 C 114.025 158.195,114.747 155.495,115.170 153.900 C 118.967 139.608,121.169 131.368,121.662 129.600 C 121.877 128.830,122.209 127.570,122.400 126.800 C 122.591 126.030,122.951 124.680,123.201 123.800 C 123.451 122.920,123.747 121.750,123.858 121.200 C 123.969 120.650,124.213 119.840,124.400 119.400 C 124.587 118.960,124.831 118.150,124.942 117.600 C 125.053 117.050,125.349 115.880,125.599 115.000 C 125.849 114.120,126.209 112.770,126.400 112.000 C 126.591 111.230,126.951 109.880,127.200 109.000 C 127.449 108.120,127.809 106.770,128.000 106.000 C 128.191 105.230,128.526 103.970,128.746 103.200 C 129.155 101.764,129.981 98.677,131.741 92.000 C 132.636 88.606,133.575 85.096,136.368 74.707 C 138.780 65.737,133.001 58.766,125.056 61.061 M269.422 61.066 C 264.018 62.614,261.791 67.861,263.632 74.707 C 266.425 85.096,267.364 88.606,268.259 92.000 C 270.019 98.677,270.845 101.764,271.254 103.200 C 271.474 103.970,271.809 105.230,272.000 106.000 C 272.191 106.770,272.551 108.120,272.800 109.000 C 273.049 109.880,273.409 111.230,273.600 112.000 C 273.791 112.770,274.151 114.120,274.401 115.000 C 274.651 115.880,274.947 117.050,275.058 117.600 C 275.169 118.150,275.413 118.960,275.600 119.400 C 275.787 119.840,276.031 120.650,276.142 121.200 C 276.253 121.750,276.549 122.920,276.799 123.800 C 277.049 124.680,277.409 126.030,277.600 126.800 C 277.791 127.570,278.123 128.830,278.338 129.600 C 278.831 131.368,281.033 139.608,284.830 153.900 C 285.253 155.495,285.975 158.195,286.433 159.900 C 286.891 161.605,287.355 163.450,287.463 164.000 C 287.572 164.550,287.813 165.360,288.000 165.800 C 288.187 166.240,288.431 167.050,288.542 167.600 C 288.653 168.150,288.949 169.320,289.199 170.200 C 289.449 171.080,289.809 172.430,290.000 173.200 C 290.191 173.970,290.551 175.320,290.801 176.200 C 291.051 177.080,291.347 178.250,291.458 178.800 C 291.569 179.350,291.813 180.160,292.000 180.600 C 292.187 181.040,292.431 181.850,292.542 182.400 C 292.653 182.950,292.949 184.120,293.199 185.000 C 293.769 187.008,294.383 189.469,294.670 190.900 C 294.791 191.505,295.032 192.000,295.205 192.000 C 296.158 192.000,305.292 176.520,307.714 170.800 C 308.040 170.030,308.664 168.590,309.100 167.600 C 309.536 166.610,310.289 164.630,310.773 163.200 C 311.257 161.770,311.800 160.240,311.981 159.800 C 312.161 159.360,312.522 158.190,312.782 157.200 C 313.041 156.210,313.422 154.847,313.627 154.172 C 313.832 153.496,314.000 152.581,314.000 152.138 C 314.000 148.632,318.528 147.197,323.310 149.188 C 327.387 150.885,327.044 151.377,327.858 142.653 C 328.240 138.557,326.597 127.869,325.161 125.105 C 324.491 123.816,324.742 120.405,325.595 119.207 C 327.475 116.567,330.185 116.426,335.012 118.717 C 336.325 119.340,338.030 120.145,338.800 120.506 L 340.200 121.162 340.331 117.881 C 340.771 106.896,336.165 94.881,329.697 90.141 C 327.470 88.509,326.790 88.129,316.400 82.718 C 312.770 80.827,308.720 78.696,307.400 77.982 C 306.080 77.268,303.560 75.948,301.800 75.048 C 300.040 74.148,298.510 73.315,298.400 73.198 C 298.290 73.080,296.941 72.357,295.403 71.592 C 293.864 70.826,290.534 69.104,288.003 67.765 C 275.135 60.958,275.561 61.148,272.800 60.991 C 271.370 60.909,269.850 60.943,269.422 61.066 M159.800 65.836 C 152.652 67.128,148.004 69.115,147.989 70.886 C 147.980 72.123,147.178 75.593,145.192 83.000 C 144.720 84.760,144.245 86.650,144.137 87.200 C 144.028 87.750,143.787 88.560,143.600 89.000 C 143.413 89.440,143.169 90.250,143.058 90.800 C 142.947 91.350,142.651 92.520,142.401 93.400 C 142.151 94.280,141.791 95.630,141.600 96.400 C 141.409 97.170,141.049 98.520,140.799 99.400 C 140.549 100.280,140.253 101.450,140.142 102.000 C 140.031 102.550,139.787 103.360,139.600 103.800 C 139.413 104.240,139.165 105.050,139.049 105.600 C 138.933 106.150,138.726 107.140,138.589 107.800 C 138.452 108.460,138.187 109.360,138.000 109.800 C 137.813 110.240,137.572 111.050,137.463 111.600 C 137.275 112.552,136.377 115.992,135.061 120.800 C 134.729 122.010,133.981 124.800,133.398 127.000 C 131.620 133.710,130.768 136.900,130.139 139.200 C 129.137 142.862,127.957 147.317,127.595 148.800 C 127.407 149.570,127.061 150.875,126.827 151.700 C 126.592 152.525,126.208 153.875,125.973 154.700 C 125.739 155.525,125.391 156.830,125.200 157.600 C 125.009 158.370,124.644 159.720,124.389 160.600 C 124.134 161.480,123.832 162.787,123.719 163.504 C 123.605 164.221,123.351 164.906,123.156 165.027 C 122.956 165.151,122.800 173.931,122.800 185.077 C 122.800 208.017,122.624 209.887,119.886 216.000 C 117.540 221.241,112.018 227.378,106.157 231.259 C 103.042 233.321,103.031 232.966,106.312 236.062 C 109.139 238.728,112.665 240.744,115.400 241.257 C 118.371 241.814,119.396 242.121,120.347 242.739 C 121.472 243.469,122.944 246.675,122.566 247.570 C 122.260 248.294,121.723 250.518,121.158 253.400 C 120.086 258.863,120.107 270.477,121.199 276.000 C 121.438 277.210,121.736 278.787,121.861 279.504 C 121.986 280.221,122.249 280.906,122.444 281.027 C 122.640 281.148,122.800 281.676,122.800 282.200 C 122.800 282.724,122.980 283.264,123.200 283.400 C 123.420 283.536,123.600 283.999,123.600 284.429 C 123.600 284.859,123.758 285.523,123.950 285.905 C 124.143 286.287,125.067 288.130,126.003 290.000 C 128.360 294.705,133.101 301.510,134.991 302.901 C 135.399 303.201,140.202 298.438,149.173 288.839 C 156.911 280.558,160.933 280.517,163.034 288.698 C 165.033 296.484,171.879 309.646,177.011 315.571 C 177.502 316.137,179.252 318.220,180.900 320.200 C 184.574 324.614,191.017 330.862,196.157 334.996 L 200.006 338.092 202.266 336.349 C 210.633 329.894,219.729 320.554,224.811 313.200 C 225.343 312.430,226.098 311.451,226.489 311.025 C 226.880 310.598,227.200 310.028,227.200 309.758 C 227.200 309.488,227.335 309.207,227.500 309.133 C 228.937 308.495,235.239 295.261,236.802 289.600 C 238.064 285.030,238.244 284.685,239.989 283.482 C 240.596 283.063,241.747 282.800,242.968 282.800 L 244.958 282.800 248.987 286.900 C 251.203 289.155,255.670 293.790,258.913 297.200 L 264.809 303.400 266.210 301.800 C 270.165 297.285,276.400 286.532,276.400 284.228 C 276.400 283.909,276.559 283.549,276.754 283.429 C 276.949 283.308,277.204 282.713,277.321 282.105 C 277.438 281.497,277.744 280.280,278.000 279.400 C 278.257 278.520,278.653 276.900,278.881 275.800 C 279.473 272.937,279.749 257.820,279.253 255.400 C 279.028 254.300,278.543 252.007,278.176 250.305 C 277.137 245.486,278.301 242.523,281.493 241.864 C 282.102 241.739,283.433 241.480,284.451 241.289 C 286.245 240.952,290.518 239.086,291.468 238.224 C 293.417 236.455,296.400 233.409,296.400 233.188 C 296.400 233.039,295.185 232.109,293.700 231.121 C 287.808 227.201,282.359 221.134,280.063 215.939 C 277.381 209.871,277.200 207.923,277.200 185.077 C 277.200 173.931,277.044 165.151,276.844 165.027 C 276.649 164.906,276.395 164.221,276.281 163.504 C 276.168 162.787,275.866 161.480,275.611 160.600 C 275.356 159.720,274.991 158.370,274.800 157.600 C 274.458 156.218,273.939 154.330,273.151 151.600 C 272.929 150.830,272.593 149.570,272.405 148.800 C 272.039 147.302,270.844 142.792,269.861 139.200 C 269.529 137.990,268.781 135.200,268.198 133.000 C 266.271 125.727,265.547 123.025,264.931 120.800 C 264.597 119.590,264.172 117.970,263.988 117.200 C 263.804 116.430,263.449 115.080,263.199 114.200 C 262.949 113.320,262.653 112.150,262.542 111.600 C 262.431 111.050,262.187 110.240,262.000 109.800 C 261.813 109.360,261.548 108.460,261.411 107.800 C 261.274 107.140,261.067 106.150,260.951 105.600 C 260.835 105.050,260.587 104.240,260.400 103.800 C 260.213 103.360,259.969 102.550,259.858 102.000 C 259.747 101.450,259.451 100.280,259.201 99.400 C 258.951 98.520,258.591 97.170,258.400 96.400 C 258.209 95.630,257.849 94.280,257.599 93.400 C 257.349 92.520,257.053 91.350,256.942 90.800 C 256.831 90.250,256.587 89.440,256.400 89.000 C 256.213 88.560,255.972 87.750,255.863 87.200 C 255.755 86.650,255.280 84.760,254.808 83.000 C 252.951 76.074,252.297 73.319,252.054 71.400 L 251.800 69.400 248.283 68.090 C 240.821 65.311,243.399 65.461,201.200 65.355 C 169.321 65.274,162.470 65.354,159.800 65.836 M163.775 116.173 C 167.417 117.268,170.286 120.033,171.513 123.628 C 172.471 126.438,172.157 137.229,171.045 139.689 C 166.883 148.893,154.326 148.925,150.122 139.742 C 148.668 136.566,148.848 124.881,150.397 121.847 C 152.834 117.076,158.621 114.621,163.775 116.173 M243.437 116.448 C 246.278 117.511,248.457 119.455,249.777 122.104 C 251.341 125.243,251.339 136.911,249.773 140.220 C 246.449 147.247,236.588 148.775,231.343 143.076 C 229.869 141.475,229.464 140.804,228.450 138.281 C 227.906 136.928,227.837 125.099,228.367 124.095 C 228.568 123.713,228.936 122.860,229.185 122.200 C 231.073 117.181,237.964 114.400,243.437 116.448 M214.199 162.969 C 219.986 164.982,222.140 172.376,218.289 177.011 C 217.447 178.024,211.310 185.875,210.000 187.615 C 208.282 189.895,207.045 191.374,206.242 192.104 C 205.616 192.674,205.550 192.978,205.894 193.704 C 206.127 194.197,206.635 195.316,207.021 196.190 C 209.852 202.601,219.385 205.699,226.170 202.415 C 230.982 200.085,233.472 196.268,234.370 189.845 C 235.165 184.159,240.931 182.091,243.995 186.393 C 244.931 187.708,245.130 192.710,244.344 195.172 C 241.165 205.122,235.180 211.234,226.100 213.800 L 225.200 214.054 225.200 228.281 C 225.200 237.042,225.036 243.140,224.774 244.154 C 223.465 249.215,222.550 251.307,220.203 254.600 C 209.205 270.033,185.100 267.664,177.274 250.381 C 176.471 248.607,176.036 247.284,175.226 244.154 C 174.964 243.140,174.800 237.042,174.800 228.281 L 174.800 214.054 173.900 213.800 C 164.774 211.221,158.851 205.174,155.656 195.172 C 154.870 192.710,155.069 187.708,156.005 186.393 C 159.069 182.091,164.835 184.159,165.630 189.845 C 166.987 199.552,173.466 204.863,182.408 203.599 C 186.711 202.991,191.439 199.678,192.978 196.192 C 193.365 195.316,193.868 194.206,194.095 193.725 C 194.415 193.048,194.359 192.702,193.848 192.191 C 193.485 191.828,192.696 190.871,192.094 190.065 C 191.492 189.259,190.772 188.359,190.494 188.065 C 190.216 187.771,189.497 186.871,188.896 186.065 C 188.296 185.259,187.700 184.510,187.571 184.400 C 185.950 183.009,180.473 174.893,180.054 173.261 C 179.096 169.520,181.213 165.229,184.897 163.447 L 187.000 162.429 199.800 162.421 C 209.718 162.414,212.960 162.537,214.199 162.969 " stroke="none" fill="#fcac3c" fill-rule="evenodd"></path><path id="path3" d="M125.000 60.537 C 123.783 60.995,118.815 63.502,113.000 66.591 C 111.240 67.526,107.910 69.286,105.600 70.501 C 103.290 71.716,99.960 73.476,98.200 74.412 C 96.440 75.348,93.380 76.963,91.400 78.000 C 89.420 79.037,86.360 80.649,84.600 81.581 C 82.840 82.514,78.970 84.560,76.000 86.128 C 64.243 92.336,59.957 100.104,58.989 116.957 C 58.658 122.715,58.531 122.683,66.170 118.770 C 71.975 115.796,76.275 119.265,74.141 125.200 C 71.915 131.390,70.991 141.937,72.143 148.000 C 72.750 151.190,73.117 151.310,77.096 149.617 C 82.414 147.354,84.778 148.657,85.986 154.515 C 87.800 163.318,93.638 176.305,100.589 187.000 C 104.592 193.158,105.203 193.666,105.770 191.306 C 106.245 189.331,106.737 187.433,107.200 185.800 C 107.449 184.920,107.809 183.570,108.000 182.800 C 108.191 182.030,108.526 180.770,108.746 180.000 C 108.965 179.230,109.503 177.250,109.942 175.600 C 110.380 173.950,111.268 170.620,111.916 168.200 C 112.564 165.780,113.645 161.730,114.318 159.200 C 115.884 153.315,117.101 148.780,117.861 146.000 C 118.192 144.790,118.809 142.495,119.231 140.900 C 120.768 135.101,121.664 131.771,122.054 130.400 C 122.274 129.630,122.609 128.370,122.800 127.600 C 122.991 126.830,123.351 125.480,123.600 124.600 C 123.849 123.720,124.209 122.370,124.400 121.600 C 124.591 120.830,124.926 119.570,125.146 118.800 C 125.365 118.030,125.903 116.050,126.340 114.400 C 127.772 108.994,128.822 105.078,130.197 100.000 C 130.942 97.250,132.026 93.200,132.605 91.000 C 133.184 88.800,133.929 86.010,134.261 84.800 C 134.592 83.590,135.195 81.340,135.600 79.800 C 136.005 78.260,136.621 75.956,136.969 74.680 C 138.250 69.975,137.652 66.253,135.158 63.413 C 134.009 62.104,133.364 61.713,130.281 60.456 C 128.910 59.897,126.606 59.932,125.000 60.537 M269.600 60.481 C 269.050 60.716,268.034 61.154,267.343 61.453 C 263.203 63.244,261.413 68.736,263.031 74.680 C 263.379 75.956,263.995 78.260,264.400 79.800 C 264.805 81.340,265.408 83.590,265.739 84.800 C 266.071 86.010,266.816 88.800,267.395 91.000 C 267.974 93.200,269.058 97.250,269.803 100.000 C 271.178 105.078,272.228 108.994,273.660 114.400 C 274.097 116.050,274.635 118.030,274.854 118.800 C 275.074 119.570,275.409 120.830,275.600 121.600 C 275.791 122.370,276.151 123.720,276.400 124.600 C 276.649 125.480,277.009 126.830,277.200 127.600 C 277.391 128.370,277.726 129.630,277.946 130.400 C 278.336 131.771,279.232 135.101,280.769 140.900 C 281.191 142.495,281.808 144.790,282.139 146.000 C 282.899 148.780,284.116 153.315,285.682 159.200 C 286.355 161.730,287.436 165.780,288.084 168.200 C 288.732 170.620,289.620 173.950,290.058 175.600 C 290.497 177.250,291.035 179.230,291.254 180.000 C 291.474 180.770,291.809 182.030,292.000 182.800 C 292.191 183.570,292.551 184.920,292.800 185.800 C 293.372 187.820,293.985 190.278,294.270 191.700 C 294.676 193.721,295.479 193.030,299.036 187.600 C 306.048 176.894,311.298 165.464,313.749 155.566 C 315.539 148.339,317.264 147.217,322.904 149.617 C 326.949 151.338,327.278 151.218,327.868 147.800 C 328.972 141.401,328.081 131.381,325.859 125.200 C 324.668 121.887,325.313 119.382,327.674 118.162 C 329.765 117.081,331.780 117.622,338.808 121.154 C 341.049 122.280,341.187 122.045,340.970 117.473 C 340.390 105.227,337.659 97.213,332.219 91.789 C 329.337 88.916,328.959 88.685,315.800 81.772 C 313.380 80.501,310.140 78.796,308.600 77.984 C 307.060 77.172,304.180 75.657,302.200 74.618 C 300.220 73.578,297.160 71.957,295.400 71.016 C 274.366 59.768,272.783 59.121,269.600 60.481 M132.682 62.125 C 136.913 64.797,138.019 68.570,136.368 74.707 C 133.575 85.096,132.636 88.606,131.741 92.000 C 129.981 98.677,129.155 101.764,128.746 103.200 C 128.526 103.970,128.191 105.230,128.000 106.000 C 127.809 106.770,127.449 108.120,127.200 109.000 C 126.951 109.880,126.591 111.230,126.400 112.000 C 126.209 112.770,125.849 114.120,125.599 115.000 C 125.349 115.880,125.053 117.050,124.942 117.600 C 124.831 118.150,124.587 118.960,124.400 119.400 C 124.213 119.840,123.969 120.650,123.858 121.200 C 123.747 121.750,123.451 122.920,123.201 123.800 C 122.951 124.680,122.591 126.030,122.400 126.800 C 122.209 127.570,121.877 128.830,121.662 129.600 C 121.169 131.368,118.967 139.608,115.170 153.900 C 114.747 155.495,114.025 158.195,113.567 159.900 C 113.109 161.605,112.645 163.450,112.537 164.000 C 112.428 164.550,112.187 165.360,112.000 165.800 C 111.813 166.240,111.569 167.050,111.458 167.600 C 111.347 168.150,111.051 169.320,110.801 170.200 C 110.551 171.080,110.191 172.430,110.000 173.200 C 109.809 173.970,109.449 175.320,109.199 176.200 C 108.949 177.080,108.653 178.250,108.542 178.800 C 108.431 179.350,108.187 180.160,108.000 180.600 C 107.813 181.040,107.569 181.850,107.458 182.400 C 107.347 182.950,107.051 184.120,106.801 185.000 C 106.378 186.491,106.145 187.386,105.321 190.687 C 105.125 191.473,104.832 191.862,104.570 191.687 C 102.783 190.494,93.523 174.238,91.191 168.200 C 91.021 167.760,90.606 166.770,90.270 166.000 C 89.933 165.230,89.366 163.700,89.009 162.600 C 88.652 161.500,88.209 160.240,88.025 159.800 C 87.842 159.360,87.478 158.190,87.218 157.200 C 86.959 156.210,86.578 154.847,86.373 154.172 C 86.168 153.496,86.000 152.581,86.000 152.138 C 86.000 148.632,81.472 147.197,76.690 149.188 C 72.625 150.880,72.851 151.206,72.133 142.609 C 71.782 138.411,73.416 127.844,74.839 125.105 C 75.509 123.816,75.258 120.405,74.405 119.207 C 72.439 116.447,69.789 116.402,64.377 119.040 C 62.740 119.839,60.976 120.654,60.459 120.852 L 59.517 121.212 59.739 116.306 C 60.499 99.478,64.529 92.598,77.536 85.916 C 82.643 83.293,89.144 79.875,93.200 77.680 C 95.897 76.221,99.363 74.390,106.200 70.812 C 117.334 64.986,120.371 63.391,122.256 62.379 C 125.920 60.412,129.818 60.317,132.682 62.125 M279.400 63.235 C 281.600 64.387,285.471 66.426,288.003 67.765 C 290.534 69.104,293.864 70.826,295.403 71.592 C 296.941 72.357,298.290 73.080,298.400 73.198 C 298.510 73.315,300.040 74.148,301.800 75.048 C 303.560 75.948,306.080 77.268,307.400 77.982 C 308.720 78.696,312.770 80.827,316.400 82.718 C 326.790 88.129,327.470 88.509,329.697 90.141 C 336.165 94.881,340.771 106.896,340.331 117.881 L 340.200 121.162 338.800 120.506 C 338.030 120.145,336.325 119.340,335.012 118.717 C 330.185 116.426,327.475 116.567,325.595 119.207 C 324.742 120.405,324.491 123.816,325.161 125.105 C 326.597 127.869,328.240 138.557,327.858 142.653 C 327.044 151.377,327.387 150.885,323.310 149.188 C 318.528 147.197,314.000 148.632,314.000 152.138 C 314.000 152.581,313.832 153.496,313.627 154.172 C 313.422 154.847,313.041 156.210,312.782 157.200 C 312.522 158.190,312.161 159.360,311.981 159.800 C 311.800 160.240,311.257 161.770,310.773 163.200 C 310.289 164.630,309.536 166.610,309.100 167.600 C 308.664 168.590,308.040 170.030,307.714 170.800 C 305.292 176.520,296.158 192.000,295.205 192.000 C 295.032 192.000,294.791 191.505,294.670 190.900 C 294.383 189.469,293.769 187.008,293.199 185.000 C 292.949 184.120,292.653 182.950,292.542 182.400 C 292.431 181.850,292.187 181.040,292.000 180.600 C 291.813 180.160,291.569 179.350,291.458 178.800 C 291.347 178.250,291.051 177.080,290.801 176.200 C 290.551 175.320,290.191 173.970,290.000 173.200 C 289.809 172.430,289.449 171.080,289.199 170.200 C 288.949 169.320,288.653 168.150,288.542 167.600 C 288.431 167.050,288.187 166.240,288.000 165.800 C 287.813 165.360,287.572 164.550,287.463 164.000 C 287.355 163.450,286.891 161.605,286.433 159.900 C 285.975 158.195,285.253 155.495,284.830 153.900 C 281.033 139.608,278.831 131.368,278.338 129.600 C 278.123 128.830,277.791 127.570,277.600 126.800 C 277.409 126.030,277.049 124.680,276.799 123.800 C 276.549 122.920,276.253 121.750,276.142 121.200 C 276.031 120.650,275.787 119.840,275.600 119.400 C 275.413 118.960,275.169 118.150,275.058 117.600 C 274.947 117.050,274.651 115.880,274.401 115.000 C 274.151 114.120,273.791 112.770,273.600 112.000 C 273.409 111.230,273.049 109.880,272.800 109.000 C 272.551 108.120,272.191 106.770,272.000 106.000 C 271.809 105.230,271.474 103.970,271.254 103.200 C 270.845 101.764,270.019 98.677,268.259 92.000 C 267.364 88.606,266.425 85.096,263.632 74.707 C 262.336 69.890,262.605 67.289,264.687 64.485 C 267.917 60.135,272.708 59.728,279.400 63.235 M164.200 64.793 C 157.848 65.255,147.626 68.143,147.592 69.486 C 147.572 70.277,146.406 76.366,146.000 77.800 C 145.751 78.680,145.391 80.030,145.200 80.800 C 145.009 81.570,144.649 82.920,144.400 83.800 C 144.151 84.680,143.791 86.030,143.600 86.800 C 143.409 87.570,143.074 88.830,142.854 89.600 C 142.635 90.370,142.097 92.350,141.659 94.000 C 141.221 95.650,140.592 97.990,140.261 99.200 C 139.931 100.410,139.286 102.795,138.830 104.500 C 138.025 107.506,137.644 108.939,135.402 117.400 C 134.819 119.600,134.071 122.390,133.739 123.600 C 133.408 124.810,132.791 127.105,132.369 128.700 C 130.832 134.499,129.936 137.829,129.546 139.200 C 129.326 139.970,128.991 141.230,128.800 142.000 C 128.609 142.770,128.249 144.120,128.000 145.000 C 127.751 145.880,127.391 147.230,127.200 148.000 C 127.009 148.770,126.674 150.030,126.454 150.800 C 125.889 152.782,124.533 157.879,123.641 161.372 C 123.224 163.006,122.729 164.581,122.541 164.872 C 122.353 165.162,122.104 175.300,121.986 187.400 L 121.772 209.400 120.725 212.511 C 118.525 219.047,112.376 226.619,105.900 230.765 C 102.522 232.928,102.523 233.264,105.910 236.459 C 109.150 239.516,112.444 241.290,116.218 242.013 C 121.541 243.033,122.599 244.796,121.254 250.403 C 116.802 268.954,121.554 289.199,133.328 301.849 L 135.460 304.139 138.354 301.103 C 139.945 299.434,141.552 297.718,141.924 297.290 C 151.380 286.419,156.174 282.516,158.818 283.536 C 160.970 284.367,161.375 285.046,162.909 290.400 C 163.130 291.170,163.449 292.160,163.618 292.600 C 163.787 293.040,164.209 294.160,164.555 295.089 C 166.836 301.208,174.358 313.958,177.600 317.200 C 177.710 317.310,178.777 318.570,179.970 320.000 C 183.615 324.366,191.796 332.342,195.767 335.400 C 196.624 336.060,197.818 337.005,198.420 337.500 C 199.988 338.789,200.224 338.708,204.204 335.522 C 219.170 323.542,232.023 306.263,236.728 291.800 C 237.158 290.480,237.732 288.547,238.006 287.504 C 238.829 284.356,241.136 282.771,243.982 283.396 C 245.112 283.644,246.687 285.210,261.844 301.156 L 264.689 304.148 265.644 303.154 C 270.191 298.429,274.743 290.918,277.133 284.200 C 280.829 273.811,281.412 259.237,278.531 249.241 C 277.323 245.048,278.824 242.963,283.725 242.025 C 288.055 241.196,291.479 239.273,294.913 235.741 C 297.378 233.205,297.316 232.825,294.100 230.765 C 290.335 228.355,284.109 222.047,282.056 218.563 C 278.205 212.030,278.009 210.494,277.993 186.800 C 277.987 176.130,277.818 166.770,277.618 166.000 C 276.981 163.541,275.558 158.247,275.146 156.800 C 274.926 156.030,274.591 154.770,274.400 154.000 C 274.209 153.230,273.849 151.880,273.600 151.000 C 273.351 150.120,272.991 148.770,272.800 148.000 C 272.609 147.230,272.249 145.880,272.000 145.000 C 271.751 144.120,271.391 142.770,271.200 142.000 C 271.009 141.230,270.674 139.970,270.454 139.200 C 270.067 137.841,269.213 134.665,267.631 128.700 C 267.208 127.105,266.332 123.820,265.684 121.400 C 265.036 118.980,263.955 114.930,263.282 112.400 C 261.716 106.515,260.499 101.980,259.739 99.200 C 259.408 97.990,258.779 95.650,258.341 94.000 C 257.903 92.350,257.365 90.370,257.146 89.600 C 256.926 88.830,256.591 87.570,256.400 86.800 C 256.209 86.030,255.849 84.680,255.600 83.800 C 255.351 82.920,254.991 81.570,254.800 80.800 C 254.609 80.030,254.251 78.680,254.004 77.800 C 253.510 76.037,252.420 70.499,252.408 69.686 C 252.395 68.818,246.734 66.651,241.000 65.318 C 237.951 64.609,172.853 64.164,164.200 64.793 M242.083 66.116 C 243.559 66.482,246.349 67.370,248.283 68.090 L 251.800 69.400 252.054 71.400 C 252.297 73.319,252.951 76.074,254.808 83.000 C 255.280 84.760,255.755 86.650,255.863 87.200 C 255.972 87.750,256.213 88.560,256.400 89.000 C 256.587 89.440,256.831 90.250,256.942 90.800 C 257.053 91.350,257.349 92.520,257.599 93.400 C 257.849 94.280,258.209 95.630,258.400 96.400 C 258.591 97.170,258.951 98.520,259.201 99.400 C 259.451 100.280,259.747 101.450,259.858 102.000 C 259.969 102.550,260.213 103.360,260.400 103.800 C 260.587 104.240,260.835 105.050,260.951 105.600 C 261.067 106.150,261.274 107.140,261.411 107.800 C 261.548 108.460,261.813 109.360,262.000 109.800 C 262.187 110.240,262.431 111.050,262.542 111.600 C 262.653 112.150,262.949 113.320,263.199 114.200 C 263.449 115.080,263.804 116.430,263.988 117.200 C 264.172 117.970,264.597 119.590,264.931 120.800 C 265.547 123.025,266.271 125.727,268.198 133.000 C 268.781 135.200,269.529 137.990,269.861 139.200 C 270.844 142.792,272.039 147.302,272.405 148.800 C 272.593 149.570,272.929 150.830,273.151 151.600 C 273.939 154.330,274.458 156.218,274.800 157.600 C 274.991 158.370,275.356 159.720,275.611 160.600 C 275.866 161.480,276.168 162.787,276.281 163.504 C 276.395 164.221,276.649 164.906,276.844 165.027 C 277.044 165.151,277.200 173.931,277.200 185.077 C 277.200 207.923,277.381 209.871,280.063 215.939 C 282.359 221.134,287.808 227.201,293.700 231.121 C 295.185 232.109,296.400 233.039,296.400 233.188 C 296.400 233.409,293.417 236.455,291.468 238.224 C 290.518 239.086,286.245 240.952,284.451 241.289 C 283.433 241.480,282.102 241.739,281.493 241.864 C 278.301 242.523,277.137 245.486,278.176 250.305 C 278.543 252.007,279.028 254.300,279.253 255.400 C 279.749 257.820,279.473 272.937,278.881 275.800 C 278.653 276.900,278.257 278.520,278.000 279.400 C 277.744 280.280,277.438 281.497,277.321 282.105 C 277.204 282.713,276.949 283.308,276.754 283.429 C 276.559 283.549,276.400 283.909,276.400 284.228 C 276.400 286.532,270.165 297.285,266.210 301.800 L 264.809 303.400 258.913 297.200 C 255.670 293.790,251.203 289.155,248.987 286.900 L 244.958 282.800 242.968 282.800 C 241.747 282.800,240.596 283.063,239.989 283.482 C 238.244 284.685,238.064 285.030,236.802 289.600 C 235.239 295.261,228.937 308.495,227.500 309.133 C 227.335 309.207,227.200 309.488,227.200 309.758 C 227.200 310.028,226.880 310.598,226.489 311.025 C 226.098 311.451,225.343 312.430,224.811 313.200 C 219.729 320.554,210.633 329.894,202.266 336.349 L 200.006 338.092 196.157 334.996 C 191.017 330.862,184.574 324.614,180.900 320.200 C 179.252 318.220,177.502 316.137,177.011 315.571 C 171.879 309.646,165.033 296.484,163.034 288.698 C 160.933 280.517,156.911 280.558,149.173 288.839 C 140.202 298.438,135.399 303.201,134.991 302.901 C 133.101 301.510,128.360 294.705,126.003 290.000 C 125.067 288.130,124.143 286.287,123.950 285.905 C 123.758 285.523,123.600 284.859,123.600 284.429 C 123.600 283.999,123.420 283.536,123.200 283.400 C 122.980 283.264,122.800 282.724,122.800 282.200 C 122.800 281.676,122.640 281.148,122.444 281.027 C 122.249 280.906,121.986 280.221,121.861 279.504 C 121.736 278.787,121.438 277.210,121.199 276.000 C 120.107 270.477,120.086 258.863,121.158 253.400 C 121.723 250.518,122.260 248.294,122.566 247.570 C 122.944 246.675,121.472 243.469,120.347 242.739 C 119.396 242.121,118.371 241.814,115.400 241.257 C 112.665 240.744,109.139 238.728,106.312 236.062 C 103.031 232.966,103.042 233.321,106.157 231.259 C 112.018 227.378,117.540 221.241,119.886 216.000 C 122.624 209.887,122.800 208.017,122.800 185.077 C 122.800 173.931,122.956 165.151,123.156 165.027 C 123.351 164.906,123.605 164.221,123.719 163.504 C 123.832 162.787,124.134 161.480,124.389 160.600 C 124.644 159.720,125.009 158.370,125.200 157.600 C 125.391 156.830,125.739 155.525,125.973 154.700 C 126.208 153.875,126.592 152.525,126.827 151.700 C 127.061 150.875,127.407 149.570,127.595 148.800 C 127.957 147.317,129.137 142.862,130.139 139.200 C 130.768 136.900,131.620 133.710,133.398 127.000 C 133.981 124.800,134.729 122.010,135.061 120.800 C 136.377 115.992,137.275 112.552,137.463 111.600 C 137.572 111.050,137.813 110.240,138.000 109.800 C 138.187 109.360,138.452 108.460,138.589 107.800 C 138.726 107.140,138.933 106.150,139.049 105.600 C 139.165 105.050,139.413 104.240,139.600 103.800 C 139.787 103.360,140.031 102.550,140.142 102.000 C 140.253 101.450,140.549 100.280,140.799 99.400 C 141.049 98.520,141.409 97.170,141.600 96.400 C 141.791 95.630,142.151 94.280,142.401 93.400 C 142.651 92.520,142.947 91.350,143.058 90.800 C 143.169 90.250,143.413 89.440,143.600 89.000 C 143.787 88.560,144.028 87.750,144.137 87.200 C 144.245 86.650,144.720 84.760,145.192 83.000 C 147.178 75.593,147.980 72.123,147.989 70.886 C 148.004 69.115,152.652 67.128,159.800 65.836 C 164.882 64.918,238.256 65.168,242.083 66.116 M156.678 116.388 C 154.001 117.434,151.573 119.544,150.397 121.847 C 148.848 124.881,148.668 136.566,150.122 139.742 C 154.326 148.925,166.883 148.893,171.045 139.689 C 172.157 137.229,172.471 126.438,171.513 123.628 C 169.403 117.447,162.541 114.098,156.678 116.388 M236.053 116.228 C 233.185 117.129,230.076 119.832,229.185 122.200 C 228.936 122.860,228.568 123.713,228.367 124.095 C 227.837 125.099,227.906 136.928,228.450 138.281 C 229.464 140.804,229.869 141.475,231.343 143.076 C 237.764 150.053,251.001 145.449,250.753 136.325 L 250.706 134.600 250.345 136.779 C 248.522 147.772,232.311 149.291,229.133 138.765 C 228.193 135.653,228.408 125.006,229.455 122.800 C 234.172 112.858,248.549 114.840,250.354 125.681 L 250.706 127.800 250.753 125.979 C 250.923 119.378,242.921 114.071,236.053 116.228 M165.084 117.281 C 167.637 118.481,169.801 120.823,170.783 123.445 C 171.967 126.610,171.972 135.775,170.792 138.929 C 167.445 147.874,155.276 148.523,150.765 139.998 C 149.446 137.505,149.114 127.307,150.237 123.739 C 152.128 117.727,159.350 114.586,165.084 117.281 M184.897 163.447 C 181.213 165.229,179.096 169.520,180.054 173.261 C 180.473 174.893,185.950 183.009,187.571 184.400 C 187.700 184.510,188.296 185.259,188.896 186.065 C 189.497 186.871,190.216 187.771,190.494 188.065 C 190.772 188.359,191.492 189.259,192.094 190.065 C 192.696 190.871,193.485 191.828,193.848 192.191 C 194.359 192.702,194.415 193.048,194.095 193.725 C 193.868 194.206,193.365 195.316,192.978 196.192 C 191.439 199.678,186.711 202.991,182.408 203.599 C 173.466 204.863,166.987 199.552,165.630 189.845 C 164.835 184.159,159.069 182.091,156.005 186.393 C 155.069 187.708,154.870 192.710,155.656 195.172 C 158.851 205.174,164.774 211.221,173.900 213.800 L 174.800 214.054 174.800 228.281 C 174.800 237.042,174.964 243.140,175.226 244.154 C 176.036 247.284,176.471 248.607,177.274 250.381 C 185.100 267.664,209.205 270.033,220.203 254.600 C 222.550 251.307,223.465 249.215,224.774 244.154 C 225.036 243.140,225.200 237.042,225.200 228.281 L 225.200 214.054 226.100 213.800 C 235.180 211.234,241.165 205.122,244.344 195.172 C 245.130 192.710,244.931 187.708,243.995 186.393 C 240.931 182.091,235.165 184.159,234.370 189.845 C 233.472 196.268,230.982 200.085,226.170 202.415 C 219.385 205.699,209.852 202.601,207.021 196.190 C 206.635 195.316,206.127 194.197,205.894 193.704 C 205.550 192.978,205.616 192.674,206.242 192.104 C 207.045 191.374,208.282 189.895,210.000 187.615 C 211.310 185.875,217.447 178.024,218.289 177.011 C 222.140 172.376,219.986 164.982,214.199 162.969 C 212.960 162.537,209.718 162.414,199.800 162.421 L 187.000 162.429 184.897 163.447 M214.595 163.732 C 220.079 166.162,221.268 172.757,217.107 177.671 C 216.608 178.260,214.850 180.485,213.200 182.614 C 211.550 184.744,209.048 187.931,207.640 189.698 C 205.080 192.909,205.079 192.911,205.594 194.355 C 211.027 209.599,232.282 206.863,234.776 190.598 C 235.422 186.386,236.717 184.800,239.509 184.800 C 244.186 184.800,245.803 190.164,243.187 197.000 C 243.019 197.440,242.654 198.401,242.377 199.136 C 240.051 205.304,231.833 212.317,225.800 213.282 C 225.022 213.407,224.993 213.817,224.750 228.205 C 224.494 243.408,224.334 245.010,222.667 249.112 C 214.458 269.315,185.542 269.315,177.333 249.112 C 175.666 245.010,175.506 243.408,175.250 228.205 C 175.007 213.817,174.978 213.407,174.200 213.282 C 168.214 212.325,159.837 205.204,157.633 199.200 C 157.351 198.430,156.981 197.440,156.813 197.000 C 154.287 190.401,155.821 184.800,160.154 184.800 C 163.214 184.800,164.583 186.347,165.189 190.488 C 167.455 205.987,186.958 209.689,193.700 195.900 C 195.036 193.168,195.042 192.917,193.813 191.400 C 193.004 190.401,191.379 188.348,186.681 182.390 C 181.038 175.234,180.165 173.564,180.501 170.577 C 180.931 166.763,183.646 163.873,187.424 163.207 C 191.328 162.520,212.794 162.934,214.595 163.732 M197.586 206.619 C 196.384 207.839,194.545 209.388,193.500 210.061 C 191.617 211.273,190.899 212.003,192.359 211.222 C 193.985 210.352,197.070 207.865,198.500 206.271 L 200.000 204.600 201.500 206.271 C 202.930 207.865,206.015 210.352,207.641 211.222 C 209.120 212.013,208.372 211.266,206.454 210.035 C 205.384 209.348,203.540 207.799,202.357 206.593 C 199.757 203.942,200.227 203.939,197.586 206.619 M189.000 212.429 C 188.120 212.852,187.850 213.086,188.400 212.949 C 189.533 212.667,191.612 211.625,191.000 211.646 C 190.780 211.653,189.880 212.006,189.000 212.429 M209.600 212.166 C 210.150 212.460,211.050 212.812,211.600 212.949 C 212.150 213.086,211.880 212.852,211.000 212.429 C 209.190 211.558,208.068 211.348,209.600 212.166 M185.400 213.600 C 185.108 214.073,185.499 214.073,186.600 213.600 C 187.371 213.269,187.369 213.255,186.524 213.228 C 186.042 213.213,185.536 213.380,185.400 213.600 M213.400 213.600 C 214.501 214.073,214.892 214.073,214.600 213.600 C 214.464 213.380,213.958 213.213,213.476 213.228 C 212.631 213.255,212.629 213.269,213.400 213.600 M185.268 242.200 C 185.262 242.640,185.411 243.360,185.600 243.800 C 186.038 244.819,186.038 243.768,185.600 242.400 C 185.343 241.596,185.277 241.557,185.268 242.200 M214.250 242.850 C 214.109 243.553,214.069 244.202,214.159 244.292 C 214.250 244.383,214.448 243.891,214.600 243.200 C 214.752 242.509,214.793 241.859,214.691 241.758 C 214.589 241.656,214.391 242.147,214.250 242.850 M187.476 247.912 C 187.867 248.634,188.812 249.804,189.577 250.512 L 190.966 251.800 189.583 250.196 C 188.822 249.314,187.877 248.144,187.483 247.596 C 186.791 246.635,186.790 246.646,187.476 247.912 M212.381 247.635 C 212.135 248.095,211.281 249.220,210.484 250.135 L 209.034 251.800 210.423 250.512 C 211.733 249.299,213.492 246.800,213.037 246.800 C 212.922 246.800,212.627 247.176,212.381 247.635 M192.400 252.619 C 192.400 252.913,194.849 254.050,195.209 253.924 C 195.404 253.856,194.851 253.498,193.982 253.130 C 193.112 252.761,192.400 252.531,192.400 252.619 M205.800 253.222 C 204.920 253.638,204.434 253.984,204.720 253.990 C 205.302 254.001,207.600 252.884,207.600 252.590 C 207.600 252.356,207.718 252.314,205.800 253.222 M196.715 254.472 C 197.092 254.621,198.570 254.744,200.000 254.744 C 201.430 254.744,202.908 254.621,203.285 254.472 C 203.662 254.322,202.184 254.200,200.000 254.200 C 197.816 254.200,196.338 254.322,196.715 254.472 " stroke="none" fill="#a66c2b" fill-rule="evenodd"></path><path id="path4" d="M197.465 207.234 C 194.676 210.060,194.819 210.394,197.664 207.700 C 198.768 206.655,199.819 205.800,200.000 205.800 C 200.181 205.800,201.232 206.655,202.336 207.700 C 205.237 210.447,205.316 210.039,202.432 207.200 C 201.092 205.880,199.951 204.815,199.897 204.834 C 199.844 204.853,198.749 205.933,197.465 207.234 M193.594 210.418 C 193.047 210.839,192.780 211.180,193.000 211.178 C 193.529 211.173,194.991 210.058,194.765 209.831 C 194.668 209.734,194.141 209.998,193.594 210.418 M205.200 209.895 C 205.200 210.284,206.814 211.319,207.051 211.082 C 207.147 210.986,206.769 210.610,206.212 210.245 C 205.656 209.880,205.200 209.722,205.200 209.895 M187.800 213.200 C 187.029 213.531,187.031 213.545,187.876 213.572 C 188.358 213.587,188.864 213.420,189.000 213.200 C 189.292 212.727,188.901 212.727,187.800 213.200 M211.000 213.200 C 211.136 213.420,211.642 213.587,212.124 213.572 C 212.969 213.545,212.971 213.531,212.200 213.200 C 211.099 212.727,210.708 212.727,211.000 213.200 M185.700 213.865 C 184.956 214.165,184.998 240.204,185.747 243.017 C 186.514 245.897,187.463 247.733,189.197 249.690 C 190.768 251.464,193.200 253.140,193.200 252.450 C 193.200 252.232,192.831 251.937,192.380 251.794 C 190.184 251.097,187.014 246.555,186.144 242.859 C 185.247 239.045,185.378 214.857,186.300 214.157 C 186.992 213.632,186.669 213.474,185.700 213.865 M213.700 214.157 C 214.622 214.857,214.753 239.045,213.856 242.859 C 212.986 246.555,209.816 251.097,207.620 251.794 C 207.169 251.937,206.800 252.232,206.800 252.450 C 206.800 253.140,209.232 251.464,210.803 249.690 C 214.467 245.554,214.790 243.766,214.795 227.543 C 214.799 215.638,214.727 214.058,214.167 213.843 C 213.147 213.451,212.947 213.585,213.700 214.157 M196.400 254.000 C 197.867 254.470,199.694 254.470,198.600 254.000 C 198.160 253.811,197.260 253.662,196.600 253.668 C 195.430 253.679,195.425 253.688,196.400 254.000 M201.400 254.000 C 200.306 254.470,202.133 254.470,203.600 254.000 C 204.575 253.688,204.570 253.679,203.400 253.668 C 202.740 253.662,201.840 253.811,201.400 254.000 " stroke="none" fill="#dd4d46" fill-rule="evenodd"></path></g></svg>